<svg xmlns="http://www.w3.org/2000/svg" xmlns:xlink="http://www.w3.org/1999/xlink" width="1080" zoomAndPan="magnify" viewBox="0 0 810 809.999993" height="1080" preserveAspectRatio="xMidYMid meet" version="1.0"><defs><clipPath id="5b98169de2"><path d="M 243 318.988281 L 567 318.988281 L 567 642.988281 L 243 642.988281 Z M 243 318.988281 " clip-rule="nonzero"/></clipPath></defs><path fill="#4cb0f7" d="M 34.0625 -59.148438 L 776 -59.148438 C 777.109375 -59.148438 778.21875 -59.09375 779.324219 -58.984375 C 780.429688 -58.875 781.527344 -58.710938 782.613281 -58.496094 C 783.703125 -58.277344 784.78125 -58.007812 785.84375 -57.6875 C 786.90625 -57.363281 787.949219 -56.992188 788.976562 -56.566406 C 790 -56.140625 791.003906 -55.667969 791.980469 -55.144531 C 792.960938 -54.621094 793.914062 -54.050781 794.835938 -53.433594 C 795.757812 -52.816406 796.648438 -52.15625 797.507812 -51.449219 C 798.367188 -50.746094 799.1875 -50 799.972656 -49.214844 C 800.757812 -48.429688 801.503906 -47.609375 802.207031 -46.75 C 802.914062 -45.890625 803.574219 -45 804.191406 -44.078125 C 804.808594 -43.152344 805.378906 -42.203125 805.902344 -41.222656 C 806.425781 -40.242188 806.898438 -39.242188 807.324219 -38.214844 C 807.746094 -37.1875 808.121094 -36.144531 808.445312 -35.082031 C 808.765625 -34.019531 809.035156 -32.941406 809.253906 -31.855469 C 809.46875 -30.765625 809.632812 -29.667969 809.742188 -28.5625 C 809.847656 -27.457031 809.902344 -26.347656 809.902344 -25.238281 L 809.902344 835.453125 C 809.902344 836.5625 809.847656 837.671875 809.742188 838.777344 C 809.632812 839.882812 809.46875 840.980469 809.253906 842.070312 C 809.035156 843.15625 808.765625 844.234375 808.445312 845.296875 C 808.121094 846.359375 807.746094 847.402344 807.324219 848.429688 C 806.898438 849.457031 806.425781 850.457031 805.902344 851.4375 C 805.378906 852.417969 804.808594 853.367188 804.191406 854.292969 C 803.574219 855.214844 802.914062 856.105469 802.207031 856.964844 C 801.503906 857.824219 800.757812 858.644531 799.972656 859.429688 C 799.1875 860.214844 798.367188 860.960938 797.507812 861.664062 C 796.648438 862.371094 795.757812 863.03125 794.835938 863.648438 C 793.914062 864.265625 792.960938 864.835938 791.984375 865.359375 C 791.003906 865.882812 790 866.355469 788.976562 866.78125 C 787.949219 867.207031 786.90625 867.578125 785.84375 867.902344 C 784.78125 868.222656 783.703125 868.492188 782.613281 868.710938 C 781.527344 868.925781 780.429688 869.089844 779.324219 869.199219 C 778.21875 869.308594 777.109375 869.363281 776 869.363281 L 34.0625 869.363281 C 32.953125 869.363281 31.847656 869.308594 30.742188 869.199219 C 29.636719 869.089844 28.539062 868.925781 27.449219 868.710938 C 26.359375 868.492188 25.285156 868.222656 24.222656 867.902344 C 23.160156 867.578125 22.117188 867.207031 21.089844 866.78125 C 20.0625 866.355469 19.0625 865.882812 18.082031 865.359375 C 17.101562 864.835938 16.152344 864.265625 15.226562 863.648438 C 14.304688 863.03125 13.414062 862.371094 12.554688 861.664062 C 11.699219 860.960938 10.875 860.214844 10.089844 859.429688 C 9.304688 858.644531 8.5625 857.824219 7.855469 856.964844 C 7.152344 856.105469 6.492188 855.214844 5.875 854.292969 C 5.257812 853.367188 4.6875 852.417969 4.164062 851.4375 C 3.640625 850.457031 3.167969 849.457031 2.742188 848.429688 C 2.316406 847.402344 1.941406 846.359375 1.621094 845.296875 C 1.296875 844.234375 1.027344 843.15625 0.8125 842.070312 C 0.597656 840.980469 0.433594 839.882812 0.324219 838.777344 C 0.214844 837.671875 0.160156 836.5625 0.160156 835.453125 L 0.160156 -25.238281 C 0.160156 -26.347656 0.214844 -27.457031 0.324219 -28.5625 C 0.433594 -29.667969 0.597656 -30.765625 0.8125 -31.855469 C 1.027344 -32.941406 1.296875 -34.019531 1.621094 -35.082031 C 1.941406 -36.144531 2.316406 -37.1875 2.742188 -38.214844 C 3.167969 -39.242188 3.640625 -40.242188 4.164062 -41.222656 C 4.6875 -42.203125 5.257812 -43.152344 5.875 -44.078125 C 6.492188 -45 7.152344 -45.890625 7.855469 -46.75 C 8.5625 -47.609375 9.304688 -48.429688 10.089844 -49.214844 C 10.875 -50 11.699219 -50.746094 12.554688 -51.449219 C 13.414062 -52.15625 14.304688 -52.816406 15.226562 -53.433594 C 16.152344 -54.050781 17.101562 -54.621094 18.082031 -55.144531 C 19.0625 -55.667969 20.0625 -56.140625 21.089844 -56.566406 C 22.117188 -56.992188 23.160156 -57.363281 24.222656 -57.6875 C 25.285156 -58.007812 26.359375 -58.277344 27.449219 -58.496094 C 28.539062 -58.710938 29.636719 -58.875 30.742188 -58.984375 C 31.847656 -59.09375 32.953125 -59.148438 34.0625 -59.148438 Z M 34.0625 -59.148438 " fill-opacity="1" fill-rule="nonzero"/><path fill="#000000" d="M 132.175781 101.472656 C 132.175781 96.503906 130.429688 92.675781 126.941406 89.988281 C 123.449219 87.296875 117.148438 84.582031 108.046875 81.839844 C 98.941406 79.097656 91.699219 76.046875 86.320312 72.683594 C 76.023438 66.214844 70.878906 57.78125 70.878906 47.382812 C 70.878906 38.277344 74.589844 30.773438 82.011719 24.875 C 89.433594 18.976562 99.070312 16.027344 110.914062 16.03125 C 118.777344 16.03125 125.789062 17.476562 131.945312 20.375 C 134.894531 21.714844 137.605469 23.4375 140.070312 25.542969 C 142.535156 27.644531 144.664062 30.046875 146.453125 32.753906 C 148.199219 35.390625 149.523438 38.226562 150.421875 41.261719 C 151.320312 44.296875 151.757812 47.398438 151.730469 50.5625 L 132.175781 50.5625 C 132.175781 44.714844 130.328125 40.132812 126.628906 36.824219 C 122.929688 33.515625 117.640625 31.859375 110.761719 31.859375 C 104.347656 31.859375 99.367188 33.226562 95.824219 35.957031 C 92.28125 38.6875 90.511719 42.5 90.507812 47.394531 C 90.507812 51.515625 92.421875 54.957031 96.25 57.710938 C 100.078125 60.46875 106.386719 63.148438 115.183594 65.753906 C 123.976562 68.355469 131.035156 71.324219 136.363281 74.660156 C 141.691406 78 145.597656 81.828125 148.082031 86.148438 C 150.5625 90.46875 151.804688 95.527344 151.804688 101.320312 C 151.804688 110.738281 148.195312 118.226562 140.980469 123.789062 C 133.761719 129.347656 123.96875 132.128906 111.609375 132.128906 C 103.773438 132.21875 96.257812 130.703125 89.066406 127.589844 C 82.214844 124.566406 76.886719 120.386719 73.082031 115.058594 C 69.28125 109.726562 67.378906 103.519531 67.378906 96.433594 L 87.007812 96.433594 C 87.007812 102.847656 89.128906 107.816406 93.371094 111.332031 C 97.613281 114.851562 103.691406 116.609375 111.605469 116.609375 C 118.4375 116.609375 123.570312 115.226562 127.007812 112.460938 C 127.84375 111.8125 128.585938 111.078125 129.246094 110.253906 C 129.90625 109.429688 130.460938 108.539062 130.910156 107.585938 C 131.359375 106.628906 131.691406 105.636719 131.902344 104.605469 C 132.117188 103.570312 132.210938 102.527344 132.175781 101.472656 Z M 132.175781 101.472656 " fill-opacity="1" fill-rule="nonzero"/><path fill="#000000" d="M 255.238281 93.792969 C 254.101562 105.847656 249.652344 115.25 241.894531 122 C 234.132812 128.75 223.8125 132.125 210.933594 132.125 C 201.933594 132.125 194.003906 129.992188 187.152344 125.722656 C 180.296875 121.457031 175.007812 115.390625 171.285156 107.527344 C 167.558594 99.664062 165.617188 90.53125 165.464844 80.132812 L 165.464844 69.578125 C 165.464844 58.917969 167.351562 49.53125 171.128906 41.40625 C 174.90625 33.28125 180.324219 27.023438 187.382812 22.625 C 194.445312 18.230469 202.605469 16.03125 211.863281 16.027344 C 224.332031 16.027344 234.367188 19.40625 241.972656 26.15625 C 249.578125 32.90625 254 42.464844 255.238281 54.832031 L 235.6875 54.832031 C 234.753906 46.707031 232.386719 40.851562 228.585938 37.253906 C 224.785156 33.65625 219.210938 31.859375 211.863281 31.859375 C 203.328125 31.859375 196.773438 34.980469 192.195312 41.21875 C 187.617188 47.460938 185.277344 56.613281 185.171875 68.679688 L 185.171875 78.699219 C 185.171875 90.917969 187.359375 100.242188 191.730469 106.664062 C 196.101562 113.085938 202.5 116.292969 210.933594 116.292969 C 218.640625 116.292969 224.433594 114.558594 228.3125 111.09375 C 232.195312 107.625 234.652344 101.859375 235.6875 93.792969 Z M 255.238281 93.792969 " fill-opacity="1" fill-rule="nonzero"/><path fill="#000000" d="M 336.015625 104.265625 L 292.25 104.265625 L 283.09375 130.574219 L 262.6875 130.574219 L 305.363281 17.582031 L 322.976562 17.582031 L 365.730469 130.574219 L 345.242188 130.574219 Z M 297.761719 88.433594 L 330.503906 88.433594 L 314.136719 41.5625 Z M 297.761719 88.433594 " fill-opacity="1" fill-rule="nonzero"/><path fill="#000000" d="M 468.15625 130.574219 L 448.523438 130.574219 L 398.164062 50.410156 L 398.164062 130.574219 L 378.535156 130.574219 L 378.535156 17.582031 L 398.164062 17.582031 L 448.679688 98.058594 L 448.679688 17.582031 L 468.15625 17.582031 Z M 468.15625 130.574219 " fill-opacity="1" fill-rule="nonzero"/><path fill="#ffffff" d="M 556.378906 17.582031 L 588.964844 104.1875 L 621.476562 17.582031 L 646.851562 17.582031 L 646.851562 130.574219 L 627.296875 130.574219 L 627.296875 93.324219 L 629.238281 43.5 L 595.871094 130.574219 L 581.828125 130.574219 L 548.542969 43.578125 L 550.480469 93.324219 L 550.480469 130.574219 L 530.925781 130.574219 L 530.925781 17.582031 Z M 556.378906 17.582031 " fill-opacity="1" fill-rule="nonzero"/><path fill="#ffffff" d="M 736.082031 80.132812 L 689.683594 80.132812 L 689.683594 114.742188 L 743.921875 114.742188 L 743.921875 130.574219 L 670.050781 130.574219 L 670.050781 17.582031 L 743.378906 17.582031 L 743.378906 33.414062 L 689.683594 33.414062 L 689.683594 64.613281 L 736.085938 64.613281 Z M 736.082031 80.132812 " fill-opacity="1" fill-rule="nonzero"/><path fill="#ffffff" d="M 708.113281 177.78125 L 491.703125 177.78125 C 489.273438 177.78125 486.867188 178.019531 484.484375 178.492188 C 482.097656 178.96875 479.785156 179.667969 477.539062 180.597656 C 475.292969 181.53125 473.160156 182.671875 471.140625 184.019531 C 469.117188 185.371094 467.25 186.90625 465.53125 188.625 L 405.03125 249.132812 L 344.535156 188.625 C 342.816406 186.90625 340.945312 185.371094 338.925781 184.019531 C 336.90625 182.671875 334.773438 181.53125 332.527344 180.601562 C 330.28125 179.667969 327.964844 178.96875 325.582031 178.492188 C 323.199219 178.019531 320.792969 177.78125 318.359375 177.78125 L 101.953125 177.78125 C 100.894531 177.78125 99.839844 177.832031 98.789062 177.9375 C 97.738281 178.039062 96.691406 178.195312 95.65625 178.402344 C 94.621094 178.609375 93.597656 178.863281 92.585938 179.171875 C 91.574219 179.476562 90.582031 179.832031 89.605469 180.238281 C 88.628906 180.644531 87.671875 181.09375 86.742188 181.59375 C 85.808594 182.089844 84.902344 182.632812 84.027344 183.21875 C 83.148438 183.808594 82.300781 184.4375 81.480469 185.105469 C 80.664062 185.777344 79.882812 186.488281 79.136719 187.234375 C 78.390625 187.980469 77.679688 188.761719 77.011719 189.582031 C 76.339844 190.398438 75.710938 191.246094 75.125 192.125 C 74.535156 193.003906 73.992188 193.90625 73.496094 194.839844 C 72.996094 195.773438 72.546875 196.726562 72.140625 197.703125 C 71.738281 198.679688 71.382812 199.671875 71.074219 200.683594 C 70.769531 201.695312 70.511719 202.71875 70.304688 203.757812 C 70.101562 204.792969 69.945312 205.835938 69.839844 206.890625 C 69.738281 207.941406 69.6875 208.996094 69.6875 210.050781 L 69.6875 763.855469 C 69.6875 764.910156 69.738281 765.964844 69.839844 767.015625 C 69.945312 768.070312 70.101562 769.113281 70.304688 770.148438 C 70.511719 771.1875 70.769531 772.210938 71.074219 773.222656 C 71.382812 774.234375 71.738281 775.226562 72.140625 776.203125 C 72.546875 777.179688 72.996094 778.132812 73.496094 779.066406 C 73.992188 780 74.535156 780.902344 75.125 781.78125 C 75.710938 782.660156 76.339844 783.507812 77.007812 784.328125 C 77.679688 785.144531 78.390625 785.925781 79.136719 786.671875 C 79.882812 787.421875 80.664062 788.128906 81.480469 788.800781 C 82.300781 789.46875 83.148438 790.097656 84.027344 790.6875 C 84.902344 791.273438 85.808594 791.816406 86.742188 792.3125 C 87.671875 792.8125 88.628906 793.261719 89.605469 793.667969 C 90.578125 794.074219 91.574219 794.429688 92.585938 794.734375 C 93.597656 795.042969 94.621094 795.296875 95.65625 795.503906 C 96.691406 795.710938 97.738281 795.867188 98.789062 795.96875 C 99.839844 796.074219 100.894531 796.125 101.953125 796.125 L 708.113281 796.125 C 709.171875 796.125 710.222656 796.074219 711.277344 795.96875 C 712.328125 795.867188 713.371094 795.710938 714.410156 795.503906 C 715.445312 795.296875 716.46875 795.042969 717.480469 794.734375 C 718.492188 794.429688 719.484375 794.074219 720.460938 793.667969 C 721.4375 793.261719 722.390625 792.8125 723.324219 792.3125 C 724.253906 791.816406 725.160156 791.273438 726.039062 790.6875 C 726.917969 790.097656 727.765625 789.46875 728.582031 788.800781 C 729.398438 788.128906 730.179688 787.421875 730.929688 786.671875 C 731.675781 785.925781 732.382812 785.144531 733.054688 784.324219 C 733.726562 783.507812 734.355469 782.660156 734.941406 781.78125 C 735.527344 780.902344 736.070312 780 736.570312 779.066406 C 737.066406 778.132812 737.519531 777.179688 737.921875 776.203125 C 738.328125 775.226562 738.683594 774.234375 738.988281 773.222656 C 739.296875 772.210938 739.550781 771.1875 739.757812 770.148438 C 739.964844 769.113281 740.121094 768.070312 740.222656 767.015625 C 740.328125 765.964844 740.378906 764.910156 740.378906 763.855469 L 740.378906 210.050781 C 740.378906 208.996094 740.328125 207.941406 740.222656 206.886719 C 740.121094 205.835938 739.964844 204.792969 739.757812 203.757812 C 739.550781 202.71875 739.296875 201.695312 738.988281 200.683594 C 738.683594 199.671875 738.328125 198.679688 737.921875 197.703125 C 737.519531 196.726562 737.066406 195.773438 736.570312 194.839844 C 736.070312 193.90625 735.527344 193.003906 734.941406 192.125 C 734.355469 191.246094 733.726562 190.398438 733.054688 189.578125 C 732.382812 188.761719 731.675781 187.980469 730.929688 187.234375 C 730.179688 186.484375 729.398438 185.777344 728.582031 185.105469 C 727.765625 184.4375 726.917969 183.808594 726.039062 183.21875 C 725.160156 182.632812 724.253906 182.089844 723.324219 181.59375 C 722.390625 181.09375 721.4375 180.640625 720.460938 180.238281 C 719.484375 179.832031 718.492188 179.476562 717.480469 179.171875 C 716.46875 178.863281 715.445312 178.609375 714.410156 178.402344 C 713.371094 178.195312 712.328125 178.039062 711.277344 177.9375 C 710.226562 177.832031 709.171875 177.78125 708.113281 177.78125 Z M 708.113281 177.78125 " fill-opacity="1" fill-rule="nonzero"/><path fill="#09090a" d="M 655.621094 359.394531 L 636.171875 359.394531 L 636.171875 267.582031 C 636.171875 266.804688 636.09375 266.039062 635.945312 265.277344 C 635.792969 264.519531 635.566406 263.78125 635.269531 263.066406 C 634.972656 262.351562 634.609375 261.671875 634.179688 261.027344 C 633.75 260.382812 633.261719 259.789062 632.710938 259.238281 C 632.164062 258.691406 631.570312 258.203125 630.925781 257.773438 C 630.28125 257.339844 629.601562 256.976562 628.886719 256.679688 C 628.171875 256.382812 627.433594 256.160156 626.671875 256.007812 C 625.914062 255.855469 625.148438 255.78125 624.371094 255.777344 L 532.574219 255.777344 L 532.574219 236.324219 L 624.371094 236.324219 C 625.394531 236.328125 626.417969 236.378906 627.433594 236.480469 C 628.453125 236.582031 629.464844 236.730469 630.464844 236.933594 C 631.46875 237.132812 632.460938 237.382812 633.441406 237.679688 C 634.417969 237.976562 635.378906 238.324219 636.324219 238.714844 C 637.269531 239.105469 638.195312 239.542969 639.097656 240.027344 C 640 240.507812 640.875 241.035156 641.726562 241.605469 C 642.574219 242.171875 643.398438 242.78125 644.1875 243.429688 C 644.976562 244.082031 645.734375 244.765625 646.460938 245.492188 C 647.183594 246.214844 647.867188 246.972656 648.519531 247.761719 C 649.167969 248.554688 649.777344 249.375 650.34375 250.226562 C 650.914062 251.074219 651.4375 251.953125 651.921875 252.855469 C 652.40625 253.757812 652.84375 254.679688 653.234375 255.625 C 653.625 256.570312 653.972656 257.53125 654.269531 258.511719 C 654.566406 259.492188 654.816406 260.480469 655.015625 261.484375 C 655.214844 262.488281 655.367188 263.5 655.46875 264.519531 C 655.570312 265.535156 655.621094 266.558594 655.621094 267.582031 Z M 655.621094 359.394531 " fill-opacity="1" fill-rule="nonzero"/><path fill="#09090a" d="M 173.890625 359.394531 L 154.441406 359.394531 L 154.441406 267.582031 C 154.441406 266.558594 154.496094 265.535156 154.597656 264.519531 C 154.695312 263.5 154.847656 262.488281 155.046875 261.484375 C 155.25 260.480469 155.5 259.492188 155.796875 258.511719 C 156.09375 257.53125 156.4375 256.570312 156.832031 255.625 C 157.222656 254.679688 157.660156 253.757812 158.144531 252.855469 C 158.625 251.953125 159.152344 251.074219 159.71875 250.226562 C 160.289062 249.375 160.898438 248.554688 161.546875 247.761719 C 162.195312 246.972656 162.882812 246.214844 163.605469 245.492188 C 164.328125 244.765625 165.085938 244.082031 165.878906 243.429688 C 166.667969 242.78125 167.488281 242.171875 168.339844 241.605469 C 169.191406 241.035156 170.066406 240.507812 170.96875 240.027344 C 171.871094 239.542969 172.792969 239.105469 173.738281 238.714844 C 174.683594 238.320312 175.644531 237.976562 176.625 237.679688 C 177.605469 237.382812 178.59375 237.132812 179.597656 236.933594 C 180.601562 236.730469 181.613281 236.582031 182.628906 236.480469 C 183.648438 236.378906 184.667969 236.328125 185.691406 236.324219 L 277.492188 236.324219 L 277.492188 255.777344 L 185.691406 255.777344 C 184.917969 255.78125 184.152344 255.855469 183.390625 256.007812 C 182.632812 256.160156 181.894531 256.382812 181.179688 256.679688 C 180.464844 256.976562 179.785156 257.339844 179.140625 257.773438 C 178.496094 258.203125 177.902344 258.691406 177.351562 259.238281 C 176.804688 259.789062 176.316406 260.382812 175.886719 261.027344 C 175.457031 261.671875 175.09375 262.351562 174.796875 263.066406 C 174.5 263.78125 174.273438 264.519531 174.121094 265.277344 C 173.96875 266.039062 173.894531 266.804688 173.894531 267.582031 Z M 173.890625 359.394531 " fill-opacity="1" fill-rule="nonzero"/><path fill="#09090a" d="M 624.371094 737.582031 L 532.574219 737.582031 L 532.574219 718.128906 L 624.371094 718.128906 C 625.148438 718.128906 625.914062 718.050781 626.671875 717.898438 C 627.433594 717.746094 628.171875 717.523438 628.886719 717.226562 C 629.601562 716.929688 630.28125 716.566406 630.925781 716.136719 C 631.570312 715.703125 632.164062 715.214844 632.710938 714.667969 C 633.261719 714.121094 633.75 713.523438 634.179688 712.878906 C 634.609375 712.234375 634.972656 711.554688 635.269531 710.839844 C 635.566406 710.125 635.792969 709.386719 635.945312 708.628906 C 636.09375 707.867188 636.171875 707.101562 636.171875 706.328125 L 636.171875 614.511719 L 655.621094 614.511719 L 655.621094 706.324219 C 655.621094 707.347656 655.570312 708.371094 655.46875 709.386719 C 655.367188 710.40625 655.214844 711.417969 655.015625 712.421875 C 654.816406 713.425781 654.566406 714.414062 654.269531 715.394531 C 653.972656 716.375 653.625 717.335938 653.234375 718.28125 C 652.84375 719.226562 652.40625 720.148438 651.921875 721.050781 C 651.4375 721.953125 650.914062 722.832031 650.34375 723.683594 C 649.777344 724.53125 649.167969 725.355469 648.519531 726.144531 C 647.867188 726.933594 647.183594 727.691406 646.460938 728.417969 C 645.734375 729.140625 644.976562 729.828125 644.1875 730.476562 C 643.398438 731.125 642.574219 731.734375 641.726562 732.304688 C 640.875 732.871094 640 733.398438 639.097656 733.878906 C 638.195312 734.363281 637.269531 734.800781 636.324219 735.191406 C 635.378906 735.585938 634.417969 735.929688 633.4375 736.226562 C 632.460938 736.523438 631.46875 736.773438 630.464844 736.976562 C 629.460938 737.175781 628.453125 737.328125 627.433594 737.425781 C 626.414062 737.527344 625.394531 737.582031 624.371094 737.582031 Z M 624.371094 737.582031 " fill-opacity="1" fill-rule="nonzero"/><path fill="#09090a" d="M 277.492188 737.582031 L 185.691406 737.582031 C 184.667969 737.578125 183.648438 737.527344 182.632812 737.425781 C 181.613281 737.324219 180.601562 737.175781 179.597656 736.976562 C 178.59375 736.773438 177.605469 736.523438 176.625 736.226562 C 175.648438 735.929688 174.683594 735.585938 173.738281 735.191406 C 172.792969 734.800781 171.871094 734.363281 170.96875 733.878906 C 170.066406 733.398438 169.191406 732.871094 168.339844 732.300781 C 167.488281 731.734375 166.667969 731.125 165.878906 730.476562 C 165.085938 729.828125 164.328125 729.140625 163.605469 728.417969 C 162.882812 727.691406 162.195312 726.933594 161.546875 726.144531 C 160.898438 725.355469 160.289062 724.53125 159.71875 723.683594 C 159.152344 722.832031 158.625 721.953125 158.144531 721.050781 C 157.660156 720.152344 157.222656 719.226562 156.832031 718.28125 C 156.4375 717.335938 156.09375 716.375 155.796875 715.394531 C 155.5 714.417969 155.25 713.425781 155.050781 712.421875 C 154.847656 711.417969 154.699219 710.40625 154.597656 709.390625 C 154.496094 708.371094 154.445312 707.351562 154.441406 706.328125 L 154.441406 614.511719 L 173.894531 614.511719 L 173.894531 706.324219 C 173.894531 707.101562 173.96875 707.867188 174.121094 708.628906 C 174.273438 709.386719 174.5 710.125 174.796875 710.839844 C 175.09375 711.554688 175.457031 712.234375 175.886719 712.878906 C 176.316406 713.523438 176.804688 714.117188 177.351562 714.667969 C 177.902344 715.214844 178.496094 715.703125 179.140625 716.132812 C 179.785156 716.566406 180.464844 716.929688 181.179688 717.226562 C 181.894531 717.523438 182.632812 717.746094 183.390625 717.898438 C 184.152344 718.050781 184.917969 718.125 185.691406 718.128906 L 277.492188 718.128906 Z M 277.492188 737.582031 " fill-opacity="1" fill-rule="nonzero"/><g clip-path="url(#5b98169de2)"><path fill="#000000" d="M 285.324219 366.535156 L 285.324219 454.875 C 285.324219 457.757812 287.664062 460.097656 290.546875 460.097656 L 378.886719 460.097656 C 381.769531 460.097656 384.109375 457.757812 384.109375 454.875 L 384.109375 366.535156 C 384.109375 363.652344 381.769531 361.308594 378.886719 361.308594 L 290.546875 361.308594 C 287.65625 361.308594 285.324219 363.644531 285.324219 366.535156 Z M 295.761719 371.75 L 373.652344 371.75 L 373.652344 449.640625 L 295.761719 449.640625 Z M 243 380.953125 L 243 324.210938 C 243 321.328125 245.339844 318.988281 248.222656 318.988281 L 304.964844 318.988281 C 307.847656 318.988281 310.191406 321.328125 310.191406 324.210938 C 310.191406 327.097656 307.847656 329.4375 304.964844 329.4375 L 253.449219 329.4375 L 253.449219 380.953125 C 253.449219 383.835938 251.109375 386.175781 248.222656 386.175781 C 245.339844 386.175781 243 383.835938 243 380.953125 Z M 499.808594 324.210938 C 499.808594 321.328125 502.152344 318.988281 505.035156 318.988281 L 561.777344 318.988281 C 564.660156 318.988281 567 321.328125 567 324.210938 L 567 380.953125 C 567 383.835938 564.660156 386.175781 561.777344 386.175781 C 558.890625 386.175781 556.550781 383.835938 556.550781 380.953125 L 556.550781 329.4375 L 505.035156 329.4375 C 502.152344 329.4375 499.808594 327.097656 499.808594 324.210938 Z M 310.191406 637.761719 C 310.191406 640.648438 307.847656 642.988281 304.964844 642.988281 L 248.222656 642.988281 C 245.339844 642.988281 243 640.648438 243 637.761719 L 243 581.023438 C 243 578.140625 245.339844 575.796875 248.222656 575.796875 C 251.109375 575.796875 253.449219 578.140625 253.449219 581.023438 L 253.449219 632.539062 L 304.964844 632.539062 C 307.847656 632.539062 310.191406 634.878906 310.191406 637.761719 Z M 567 581.023438 L 567 637.761719 C 567 640.648438 564.660156 642.988281 561.777344 642.988281 L 505.035156 642.988281 C 502.152344 642.988281 499.808594 640.648438 499.808594 637.761719 C 499.808594 634.878906 502.152344 632.539062 505.035156 632.539062 L 556.550781 632.539062 L 556.550781 581.023438 C 556.550781 578.140625 558.890625 575.796875 561.777344 575.796875 C 564.660156 575.796875 567 578.140625 567 581.023438 Z M 431.113281 460.097656 L 519.453125 460.097656 C 522.335938 460.097656 524.675781 457.757812 524.675781 454.875 L 524.675781 366.535156 C 524.675781 363.652344 522.335938 361.308594 519.453125 361.308594 L 431.113281 361.308594 C 428.230469 361.308594 425.890625 363.652344 425.890625 366.535156 L 425.890625 454.875 C 425.890625 457.757812 428.230469 460.097656 431.113281 460.097656 Z M 436.339844 371.75 L 514.226562 371.75 L 514.226562 449.640625 L 436.339844 449.640625 Z M 378.886719 501.878906 L 290.546875 501.878906 C 287.664062 501.878906 285.324219 504.21875 285.324219 507.101562 L 285.324219 595.441406 C 285.324219 598.324219 287.664062 600.664062 290.546875 600.664062 L 378.886719 600.664062 C 381.769531 600.664062 384.109375 598.324219 384.109375 595.441406 L 384.109375 507.101562 C 384.109375 504.21875 381.769531 501.878906 378.886719 501.878906 Z M 373.660156 590.222656 L 295.761719 590.222656 L 295.761719 512.335938 L 373.652344 512.335938 L 373.652344 590.222656 Z M 446.648438 574.679688 L 431.113281 574.679688 C 428.230469 574.679688 425.890625 577.023438 425.890625 579.90625 L 425.890625 595.441406 C 425.890625 598.324219 428.230469 600.664062 431.113281 600.664062 L 446.648438 600.664062 C 449.535156 600.664062 451.875 598.324219 451.875 595.441406 L 451.875 579.90625 C 451.875 577.023438 449.542969 574.679688 446.648438 574.679688 Z M 441.425781 590.222656 L 436.339844 590.222656 L 436.339844 585.136719 L 441.425781 585.136719 Z M 410.222656 366.535156 L 410.222656 366.589844 C 410.222656 369.476562 407.882812 371.816406 405 371.816406 C 402.117188 371.816406 399.777344 369.476562 399.777344 366.589844 L 399.777344 366.535156 C 399.777344 363.652344 402.117188 361.308594 405 361.308594 C 407.882812 361.308594 410.222656 363.644531 410.222656 366.535156 Z M 410.222656 385.171875 L 410.222656 454.875 C 410.222656 457.757812 407.882812 460.097656 405 460.097656 C 402.117188 460.097656 399.777344 457.757812 399.777344 454.875 L 399.777344 385.171875 C 399.777344 382.289062 402.117188 379.949219 405 379.949219 C 407.882812 379.949219 410.222656 382.289062 410.222656 385.171875 Z M 410.222656 480.957031 L 410.222656 481.011719 C 410.222656 483.894531 407.882812 486.238281 405 486.238281 C 402.117188 486.238281 399.777344 483.894531 399.777344 481.011719 L 399.777344 480.957031 C 399.777344 478.070312 402.117188 475.730469 405 475.730469 C 407.882812 475.730469 410.222656 478.070312 410.222656 480.957031 Z M 410.222656 595.382812 L 410.222656 595.441406 C 410.222656 598.324219 407.882812 600.664062 405 600.664062 C 402.117188 600.664062 399.777344 598.324219 399.777344 595.441406 L 399.777344 595.382812 C 399.777344 592.5 402.117188 590.160156 405 590.160156 C 407.882812 590.160156 410.222656 592.5 410.222656 595.382812 Z M 410.222656 507.101562 L 410.222656 576.804688 C 410.222656 579.6875 407.882812 582.027344 405 582.027344 C 402.117188 582.027344 399.777344 579.6875 399.777344 576.804688 L 399.777344 507.101562 C 399.777344 504.21875 402.117188 501.878906 405 501.878906 C 407.882812 501.878906 410.222656 504.21875 410.222656 507.101562 Z M 290.605469 475.761719 C 293.488281 475.761719 295.828125 478.105469 295.828125 480.988281 C 295.828125 483.871094 293.488281 486.210938 290.605469 486.210938 L 290.546875 486.210938 C 287.664062 486.210938 285.324219 483.871094 285.324219 480.988281 C 285.324219 478.105469 287.664062 475.761719 290.546875 475.761719 Z M 384.109375 480.988281 C 384.109375 483.871094 381.769531 486.210938 378.886719 486.210938 L 309.183594 486.210938 C 306.300781 486.210938 303.960938 483.871094 303.960938 480.988281 C 303.960938 478.105469 306.300781 475.761719 309.183594 475.761719 L 378.886719 475.761719 C 381.769531 475.761719 384.109375 478.105469 384.109375 480.988281 Z M 524.675781 480.988281 C 524.675781 483.871094 522.335938 486.210938 519.453125 486.210938 L 519.394531 486.210938 C 516.511719 486.210938 514.171875 483.871094 514.171875 480.988281 C 514.171875 478.105469 516.511719 475.761719 519.394531 475.761719 L 519.453125 475.761719 C 522.34375 475.761719 524.675781 478.105469 524.675781 480.988281 Z M 500.816406 486.210938 L 431.113281 486.210938 C 428.230469 486.210938 425.890625 483.871094 425.890625 480.988281 C 425.890625 478.105469 428.230469 475.761719 431.113281 475.761719 L 500.816406 475.761719 C 503.699219 475.761719 506.039062 478.105469 506.039062 480.988281 C 506.039062 483.871094 503.699219 486.210938 500.816406 486.210938 Z M 354.089844 396.546875 L 354.089844 424.855469 C 354.089844 427.738281 351.75 430.078125 348.867188 430.078125 L 320.558594 430.078125 C 317.675781 430.078125 315.332031 427.738281 315.332031 424.855469 L 315.332031 396.546875 C 315.332031 393.660156 317.675781 391.320312 320.558594 391.320312 L 348.867188 391.320312 C 351.75 391.320312 354.089844 393.660156 354.089844 396.546875 Z M 494.667969 396.546875 L 494.667969 424.855469 C 494.667969 427.738281 492.324219 430.078125 489.441406 430.078125 L 461.132812 430.078125 C 458.25 430.078125 455.910156 427.738281 455.910156 424.855469 L 455.910156 396.546875 C 455.910156 393.660156 458.25 391.320312 461.132812 391.320312 L 489.441406 391.320312 C 492.324219 391.320312 494.667969 393.660156 494.667969 396.546875 Z M 315.332031 565.429688 L 315.332031 537.121094 C 315.332031 534.238281 317.675781 531.898438 320.558594 531.898438 L 348.867188 531.898438 C 351.75 531.898438 354.089844 534.238281 354.089844 537.121094 L 354.089844 565.429688 C 354.089844 568.3125 351.75 570.65625 348.867188 570.65625 L 320.558594 570.65625 C 317.675781 570.65625 315.332031 568.3125 315.332031 565.429688 Z M 425.890625 522.875 L 425.890625 507.109375 C 425.890625 504.226562 428.230469 501.886719 431.113281 501.886719 C 433.996094 501.886719 436.339844 504.226562 436.339844 507.109375 L 436.339844 522.875 C 436.339844 525.757812 433.996094 528.097656 431.113281 528.097656 C 428.230469 528.097656 425.890625 525.757812 425.890625 522.875 Z M 452.9375 512.328125 L 452.9375 522.875 C 452.9375 525.75 450.601562 528.074219 447.734375 528.074219 C 444.859375 528.074219 442.535156 525.742188 442.535156 522.875 L 442.535156 507.101562 C 442.535156 504.226562 444.867188 501.902344 447.734375 501.902344 C 447.890625 501.902344 448.035156 501.910156 448.1875 501.925781 C 448.390625 501.902344 448.601562 501.886719 448.8125 501.886719 L 467.101562 501.886719 C 469.984375 501.886719 472.328125 504.226562 472.328125 507.109375 C 472.328125 509.992188 469.984375 512.335938 467.101562 512.335938 L 452.9375 512.335938 Z M 524.675781 507.101562 L 524.675781 595.441406 C 524.675781 598.324219 522.335938 600.664062 519.453125 600.664062 C 516.570312 600.664062 514.226562 598.324219 514.226562 595.441406 L 514.226562 507.101562 C 514.226562 504.21875 516.570312 501.878906 519.453125 501.878906 C 522.34375 501.878906 524.675781 504.21875 524.675781 507.101562 Z M 425.890625 537.851562 L 425.890625 537.792969 C 425.890625 534.910156 428.230469 532.570312 431.113281 532.570312 C 433.996094 532.570312 436.339844 534.910156 436.339844 537.792969 L 436.339844 537.851562 C 436.339844 540.734375 433.996094 543.074219 431.113281 543.074219 C 428.230469 543.074219 425.890625 540.734375 425.890625 537.851562 Z M 472.320312 522.808594 L 472.320312 522.863281 C 472.320312 525.75 469.976562 528.089844 467.09375 528.089844 C 464.210938 528.089844 461.871094 525.75 461.871094 522.863281 L 461.871094 522.808594 C 461.871094 519.925781 464.210938 517.582031 467.09375 517.582031 C 469.976562 517.582031 472.320312 519.925781 472.320312 522.808594 Z M 508.179688 507.101562 C 508.179688 509.984375 505.835938 512.328125 502.953125 512.328125 L 484.808594 512.328125 C 481.925781 512.328125 479.585938 509.984375 479.585938 507.101562 C 479.585938 504.21875 481.925781 501.878906 484.808594 501.878906 L 502.953125 501.878906 C 505.835938 501.878906 508.179688 504.21875 508.179688 507.101562 Z M 425.890625 564.425781 L 425.890625 553.765625 C 425.890625 550.882812 428.230469 548.542969 431.113281 548.542969 C 433.996094 548.542969 436.339844 550.882812 436.339844 553.765625 L 436.339844 564.425781 C 436.339844 567.308594 433.996094 569.652344 431.113281 569.652344 C 428.230469 569.652344 425.890625 567.308594 425.890625 564.425781 Z M 502.953125 600.664062 L 484.808594 600.664062 C 481.925781 600.664062 479.585938 598.324219 479.585938 595.441406 C 479.585938 592.558594 481.925781 590.214844 484.808594 590.214844 L 502.953125 590.214844 C 505.835938 590.214844 508.179688 592.558594 508.179688 595.441406 C 508.179688 598.324219 505.835938 600.664062 502.953125 600.664062 Z M 479.585938 579.914062 C 479.585938 577.03125 481.925781 574.6875 484.808594 574.6875 L 502.953125 574.6875 C 505.835938 574.6875 508.179688 577.03125 508.179688 579.914062 C 508.179688 582.796875 505.835938 585.136719 502.953125 585.136719 L 484.808594 585.136719 C 481.925781 585.136719 479.585938 582.796875 479.585938 579.914062 Z M 478.394531 537.792969 C 478.394531 540.675781 476.054688 543.019531 473.167969 543.019531 L 461.214844 543.019531 C 458.332031 543.019531 455.988281 540.675781 455.988281 537.792969 C 455.988281 534.910156 458.332031 532.570312 461.214844 532.570312 L 473.167969 532.570312 C 476.054688 532.570312 478.394531 534.910156 478.394531 537.792969 Z M 469.113281 595.382812 L 469.113281 595.441406 C 469.113281 598.324219 466.769531 600.664062 463.886719 600.664062 C 461.003906 600.664062 458.664062 598.324219 458.664062 595.441406 L 458.664062 595.382812 C 458.664062 592.5 461.003906 590.160156 463.886719 590.160156 C 466.777344 590.160156 469.113281 592.5 469.113281 595.382812 Z M 469.113281 579.882812 L 469.113281 579.9375 C 469.113281 582.820312 466.769531 585.164062 463.886719 585.164062 C 461.003906 585.164062 458.664062 582.820312 458.664062 579.9375 L 458.664062 579.882812 C 458.664062 576.996094 461.003906 574.65625 463.886719 574.65625 C 466.777344 574.65625 469.113281 576.996094 469.113281 579.882812 Z M 451.875 564.371094 L 451.875 564.425781 C 451.875 567.308594 449.535156 569.652344 446.648438 569.652344 C 443.765625 569.652344 441.425781 567.308594 441.425781 564.425781 L 441.425781 564.371094 C 441.425781 561.484375 443.765625 559.144531 446.648438 559.144531 C 449.535156 559.144531 451.875 561.484375 451.875 564.371094 Z M 451.875 551.0625 C 451.875 553.945312 449.535156 556.285156 446.648438 556.285156 C 443.765625 556.285156 441.425781 553.945312 441.425781 551.0625 C 441.425781 548.167969 443.765625 545.835938 446.648438 545.835938 C 449.535156 545.828125 451.875 548.167969 451.875 551.0625 Z M 451.875 537.851562 C 451.875 540.734375 449.535156 543.074219 446.648438 543.074219 C 443.765625 543.074219 441.425781 540.734375 441.425781 537.851562 L 441.425781 537.792969 C 441.425781 534.910156 443.765625 532.570312 446.648438 532.570312 C 449.535156 532.570312 451.875 534.910156 451.875 537.792969 Z M 502.945312 528.097656 C 500.0625 528.097656 497.71875 525.757812 497.71875 522.875 L 497.71875 522.816406 C 497.71875 519.933594 500.0625 517.59375 502.945312 517.59375 C 505.828125 517.59375 508.167969 519.933594 508.167969 522.816406 L 508.167969 522.875 C 508.167969 525.757812 505.828125 528.097656 502.945312 528.097656 Z M 475.390625 522.808594 C 475.390625 519.925781 477.730469 517.582031 480.613281 517.582031 L 488.03125 517.582031 C 490.917969 517.582031 493.257812 519.925781 493.257812 522.808594 C 493.257812 525.691406 490.917969 528.03125 488.03125 528.03125 L 480.613281 528.03125 C 477.730469 528.03125 475.390625 525.691406 475.390625 522.808594 Z M 508.179688 537.792969 C 508.179688 534.910156 505.835938 532.570312 502.953125 532.570312 L 487.417969 532.570312 C 484.535156 532.570312 482.191406 534.910156 482.191406 537.792969 L 482.191406 553.328125 C 482.191406 556.210938 484.535156 558.554688 487.417969 558.554688 L 502.953125 558.554688 C 505.835938 558.554688 508.179688 556.210938 508.179688 553.328125 Z M 497.730469 548.105469 L 492.640625 548.105469 L 492.640625 543.019531 L 497.730469 543.019531 Z M 478.394531 551.578125 C 478.394531 554.464844 476.054688 556.804688 473.167969 556.804688 L 461.214844 556.804688 C 458.332031 556.804688 455.988281 554.464844 455.988281 551.578125 C 455.988281 548.695312 458.332031 546.355469 461.214844 546.355469 L 473.167969 546.355469 C 476.054688 546.355469 478.394531 548.695312 478.394531 551.578125 Z M 478.394531 564.425781 C 478.394531 567.308594 476.054688 569.652344 473.167969 569.652344 L 461.214844 569.652344 C 458.332031 569.652344 455.988281 567.308594 455.988281 564.425781 C 455.988281 561.542969 458.332031 559.203125 461.214844 559.203125 L 473.167969 559.203125 C 476.054688 559.203125 478.394531 561.542969 478.394531 564.425781 Z M 487.417969 571.390625 C 484.535156 571.390625 482.191406 569.050781 482.191406 566.167969 L 482.191406 566.109375 C 482.191406 563.226562 484.535156 560.886719 487.417969 560.886719 C 490.300781 560.886719 492.640625 563.226562 492.640625 566.109375 L 492.640625 566.167969 C 492.640625 569.050781 490.300781 571.390625 487.417969 571.390625 Z M 502.945312 571.390625 C 500.0625 571.390625 497.71875 569.050781 497.71875 566.167969 L 497.71875 566.109375 C 497.71875 563.226562 500.0625 560.886719 502.945312 560.886719 C 505.828125 560.886719 508.167969 563.226562 508.167969 566.109375 L 508.167969 566.167969 C 508.167969 569.050781 505.828125 571.390625 502.945312 571.390625 Z M 502.945312 571.390625 " fill-opacity="1" fill-rule="nonzero"/></g></svg>